<svg xmlns="http://www.w3.org/2000/svg" width="14.969" height="15.996"><path d="M4.225 15.996a4.173 4.173 0 01-2.939-1.372 4.65 4.65 0 01-.08-6.334l1.872-2a.893.893 0 011.324 0 1.048 1.048 0 010 1.415l-1.872 2a2.541 2.541 0 00.08 3.5 2.362 2.362 0 001.66.788 2.117 2.117 0 001.616-.7l1.873-2a.893.893 0 011.324 0 1.05 1.05 0 010 1.415l-1.873 2a3.922 3.922 0 01-2.884 1.288zm.725-5.29a1.048 1.048 0 010-1.415l3.745-4a.894.894 0 011.324 0 1.049 1.049 0 010 1.416l-3.745 4a.893.893 0 01-1.324 0zm5.617-1a1.05 1.05 0 010-1.415l1.873-2a2.543 2.543 0 00-.081-3.5 2.168 2.168 0 00-3.276-.086l-1.873 2a.893.893 0 01-1.324 0 1.048 1.048 0 010-1.415l1.873-2a3.959 3.959 0 015.924.086 4.649 4.649 0 01.081 6.334l-1.873 2a.893.893 0 01-1.324 0z"/></svg>